<?xml version="1.0" encoding="UTF-8"?>
<svg id="_레이어_1" data-name="레이어 1" xmlns="http://www.w3.org/2000/svg" viewBox="0 0 48 48">
  <path d="m24.5,4.18c5.17,0,9.37,4.2,9.37,9.37s-4.2,9.37-9.37,9.37-9.37-4.2-9.37-9.37,4.2-9.37,9.37-9.37m0-2c-6.28,0-11.37,5.09-11.37,11.37s5.09,11.37,11.37,11.37,11.37-5.09,11.37-11.37S30.78,2.18,24.5,2.18h0Z"/>
  <path d="m30.5,45.82c-.26,0-.52-.11-.71-.3-.18-.18-.29-.44-.29-.7s.11-.52.29-.71c.38-.37,1.04-.37,1.42,0,.18.18.29.44.29.71s-.11.52-.29.7c-.19.19-.45.3-.71.3Z"/>
  <path d="m42.5,45.82h-8c-.55,0-1-.45-1-1s.45-1,1-1h6.97c-.52-8.91-7.93-16-16.97-16s-16.45,7.09-16.97,16h18.97c.55,0,1,.45,1,1s-.45,1-1,1H6.5c-.55,0-1-.45-1-1,0-10.48,8.52-19,19-19s19,8.52,19,19c0,.55-.45,1-1,1Z"/>
</svg>