<?xml version="1.0" encoding="UTF-8"?>
<svg id="_레이어_1" data-name="레이어 1" xmlns="http://www.w3.org/2000/svg" viewBox="0 0 48 48">
  <path d="m27.5,43c-.26,0-.52-.11-.71-.29-.18-.19-.29-.45-.29-.71s.11-.52.29-.71c.37-.37,1.04-.37,1.42,0,.18.19.29.45.29.71s-.11.52-.29.71c-.19.18-.45.29-.71.29Z"/>
  <g>
    <path d="m34.5,43h-3c-.55,0-1-.45-1-1s.45-1,1-1h3c1.1,0,2-.9,2-2v-14.01c0-1.1-.9-2-2-2H12.5c-1.1,0-2,.9-2,2v14.01c0,1.1.9,2,2,2h11c.55,0,1,.45,1,1s-.45,1-1,1h-11c-2.2,0-4-1.79-4-4v-14.01c0-2.2,1.79-4,4-4h22.01c2.2,0,4,1.79,4,4v14.01c0,2.2-1.79,4-4,4Z"/>
    <path d="m33.5,22c-.55,0-1-.45-1-1v-5c0-4.96-4.04-9-9-9s-9,4.04-9,9v5c0,.55-.45,1-1,1s-1-.45-1-1v-5c0-6.07,4.93-11,11-11s11,4.93,11,11v5c0,.55-.45,1-1,1Z"/>
    <path d="m23.5,34c-2.21,0-4-1.79-4-4s1.79-4,4-4,4,1.79,4,4-1.79,4-4,4Zm0-6c-1.1,0-2,.9-2,2s.9,2,2,2,2-.9,2-2-.9-2-2-2Z"/>
    <path d="m23.5,38c-.55,0-1-.45-1-1v-4c0-.55.45-1,1-1s1,.45,1,1v4c0,.55-.45,1-1,1Z"/>
  </g>
</svg>