<?xml version="1.0" encoding="UTF-8"?>
<svg id="_레이어_1" data-name="레이어 1" xmlns="http://www.w3.org/2000/svg" viewBox="0 0 48 48">
  <path d="m37.5,39c-.26,0-.52-.11-.71-.29-.18-.19-.29-.45-.29-.71,0-.13.03-.26.08-.38.05-.12.12-.23.21-.33.37-.37,1.05-.37,1.42,0,.09.1.16.21.21.33.05.12.08.25.08.38,0,.26-.11.52-.29.71-.19.18-.45.29-.71.29Z"/>
  <path d="m24,44.5c-11.3,0-20.5-9.2-20.5-20.5S12.7,3.5,24,3.5s20.5,9.2,20.5,20.5c0,3.88-1.09,7.66-3.15,10.93-.3.47-.91.61-1.38.31-.47-.29-.61-.91-.31-1.38,1.86-2.95,2.84-6.36,2.84-9.86,0-10.2-8.3-18.5-18.5-18.5S5.5,13.8,5.5,24s8.3,18.5,18.5,18.5c3.55,0,6.99-1.01,9.96-2.91.46-.3,1.08-.16,1.38.3.3.46.16,1.08-.3,1.38-3.29,2.11-7.11,3.22-11.04,3.22Z"/>
  <path d="m32,33c-.26,0-.51-.1-.71-.29L15.29,16.71c-.39-.39-.39-1.02,0-1.41s1.02-.39,1.41,0l16,16c.39.39.39,1.02,0,1.41-.2.2-.45.29-.71.29Z"/>
  <path d="m16,33c-.26,0-.51-.1-.71-.29-.39-.39-.39-1.02,0-1.41L31.29,15.29c.39-.39,1.02-.39,1.41,0s.39,1.02,0,1.41l-16,16c-.2.2-.45.29-.71.29Z"/>
</svg>