<?xml version="1.0" encoding="UTF-8"?>
<svg id="_레이어_1" data-name="레이어 1" xmlns="http://www.w3.org/2000/svg" viewBox="0 0 48 48">
  <path d="m44,45c-.26,0-.51-.1-.71-.29l-15.56-15.56c-.39-.39-.39-1.02,0-1.41s1.02-.39,1.41,0l15.56,15.56c.39.39.39,1.02,0,1.41-.2.2-.45.29-.71.29Z"/>
  <path d="m19.42,32.71c-3.58,0-7.17-1.36-9.9-4.09-5.46-5.46-5.46-14.34,0-19.8,2.64-2.64,6.16-4.1,9.9-4.1s7.26,1.46,9.9,4.1c.39.39.39,1.02,0,1.41s-1.02.39-1.41,0c-2.27-2.27-5.28-3.52-8.49-3.52s-6.22,1.25-8.49,3.52c-4.68,4.68-4.68,12.29,0,16.97,4.68,4.68,12.29,4.68,16.97,0,2.51-2.51,3.78-5.99,3.47-9.53-.05-.55.36-1.04.91-1.08.55-.05,1.04.36,1.08.91.36,4.13-1.12,8.19-4.05,11.12-2.73,2.73-6.31,4.09-9.9,4.09Z"/>
  <path d="m31,13.93c-.26,0-.52-.11-.71-.29-.09-.1-.16-.2-.21-.33-.05-.12-.08-.25-.08-.38,0-.27.11-.52.29-.71.1-.09.21-.16.33-.21.37-.15.81-.07,1.09.21.18.19.29.44.29.71,0,.13-.03.26-.08.38-.05.13-.12.23-.21.33-.19.18-.45.29-.71.29Z"/>
</svg>