<?xml version="1.0" encoding="UTF-8"?>
<svg id="_레이어_1" data-name="레이어 1" xmlns="http://www.w3.org/2000/svg" viewBox="0 0 48 48">
  <path d="m28.83,32.33h-9.85c-.55,0-1-.45-1-1s.45-1,1-1h8.85V11H6.5v5.86c0,.55-.45,1-1,1s-1-.45-1-1v-6.86c0-.55.45-1,1-1h23.33c.55,0,1,.45,1,1v21.33c0,.55-.45,1-1,1Z"/>
  <path d="m5.51,22c-.55,0-1-.45-1-1s.44-1,1-1h0c.55,0,1,.45,1,1s-.45,1-1,1Z"/>
  <path d="m5.5,32.33c-.55,0-1-.45-1-1v-7.4c0-.55.45-1,1-1s1,.45,1,1v7.4c0,.55-.45,1-1,1Z"/>
  <path d="m42.38,23.67h-8.99c-.55,0-1-.45-1-1v-4.33c0-.55.45-1,1-1h5.88c1.2,0,2.24.59,2.64,1.5h0l1.47,3.36c.14.31.1.71-.09.99-.2.3-.54.48-.9.48Zm-7.99-2h6.57l-.89-2.03c-.05-.11-.36-.3-.81-.3h-4.88v2.33Z"/>
  <path d="m42.5,32.33c-.55,0-1-.45-1-1v-8.13c-.1-.16-.16-.34-.16-.54,0-.08,0-.16.03-.23l-2.07-6.31c-.22-.67-.88-1.12-1.64-1.12h-7.83v16.24c0,.55-.45,1.04-1,1.04s-1-.4-1-.96V14c0-.55.45-1,1-1h8.83c1.62,0,3.05,1,3.54,2.5l2.21,6.72s.01.04.02.07c.05.12.08.25.08.39v8.67c0,.55-.45,1-1,1Z"/>
  <path d="m42.5,36h-3.68c-.55,0-1-.45-1-1s.45-1,1-1h2.68v-9.5c0-.55.45-1,1-1s1,.45,1,1v10.5c0,.55-.45,1-1,1Z"/>
  <path d="m30.5,36h-13c-.55,0-1-.45-1-1s.45-1,1-1h13c.55,0,1,.45,1,1s-.45,1-1,1Z"/>
  <path d="m9.15,36h-3.65c-.55,0-1-.45-1-1v-10c0-.55.45-1,1-1s1,.45,1,1v9h2.65c.55,0,1,.45,1,1s-.45,1-1,1Z"/>
  <path d="m13.5,41c-2.76,0-5-2.24-5-5s2.24-5,5-5,5,2.24,5,5-2.24,5-5,5Zm0-8c-1.65,0-3,1.35-3,3s1.35,3,3,3,3-1.35,3-3-1.35-3-3-3Z"/>
  <path d="m34.5,41c-2.76,0-5-2.24-5-5s2.24-5,5-5,5,2.24,5,5-2.24,5-5,5Zm0-8c-1.65,0-3,1.35-3,3s1.35,3,3,3,3-1.35,3-3-1.35-3-3-3Z"/>
  <path d="m19.5,15H6.5c-.55,0-1-.45-1-1s.45-1,1-1h13c.55,0,1,.45,1,1s-.45,1-1,1Z"/>
</svg>