<?xml version="1.0" encoding="UTF-8"?>
<svg id="_레이어_1" data-name="레이어 1" xmlns="http://www.w3.org/2000/svg" viewBox="0 0 48 48">
  <path d="m7.5,28c-.13,0-.26-.03-.38-.08-.13-.05-.23-.12-.33-.21-.18-.19-.29-.45-.29-.71,0-.13.03-.26.08-.38.05-.12.12-.23.21-.33.38-.37,1.04-.37,1.42,0,.18.19.29.45.29.71,0,.07-.01.13-.02.2-.01.06-.03.12-.06.18-.02.06-.05.12-.09.18-.04.05-.08.1-.12.15-.1.09-.2.16-.33.21-.12.05-.25.08-.38.08Z"/>
  <path d="m41.5,44H7.5c-.55,0-1-.45-1-1v-11.89c0-.55.45-1,1-1s1,.45,1,1v10.89h32v-22.94c.02-.3-.04-.64-.41-.92l-14.96-11.4c-.37-.28-.89-.28-1.26,0l-14.97,11.4c-.36.28-.42.62-.41.86v4.14c0,.55-.45,1-1,1s-1-.45-1-1v-4.09c-.06-.95.38-1.89,1.19-2.51l14.96-11.4c1.08-.83,2.6-.83,3.68,0l14.96,11.4c.82.62,1.25,1.56,1.19,2.57v23.88c0,.55-.45,1-1,1Z"/>
  <path d="m37.5,26H11.5c-.55,0-1-.45-1-1v-3c0-.55.45-1,1-1h26c.55,0,1,.45,1,1v3c0,.55-.45,1-1,1Zm-25-2h24v-1H12.5v1Z"/>
  <path d="m34.5,35c-.26,0-.52-.11-.71-.29-.18-.19-.29-.44-.29-.71s.11-.52.29-.71c.38-.37,1.05-.37,1.42,0,.18.19.29.45.29.71s-.11.52-.29.71c-.19.18-.45.29-.71.29Z"/>
  <path d="m34.5,44H14.5c-.55,0-1-.45-1-1v-18c0-.55.45-1,1-1h20c.55,0,1,.45,1,1v6.02c0,.55-.45,1-1,1s-1-.45-1-1v-5.02H15.5v16h18v-3.74c0-.55.45-1,1-1s1,.45,1,1v4.74c0,.55-.45,1-1,1Z"/>
  <path d="m29.5,14h-10c-.55,0-1-.45-1-1s.45-1,1-1h10c.55,0,1,.45,1,1s-.45,1-1,1Z"/>
  <path d="m29.5,17h-10c-.55,0-1-.45-1-1s.45-1,1-1h10c.55,0,1,.45,1,1s-.45,1-1,1Z"/>
</svg>