<?xml version="1.0" encoding="UTF-8"?>
<svg id="_레이어_1" data-name="레이어 1" xmlns="http://www.w3.org/2000/svg" viewBox="0 0 48 48">
  <path d="m41.5,39.67c-.13,0-.26-.03-.38-.08-.12-.05-.23-.12-.33-.22-.18-.18-.29-.44-.29-.7s.11-.52.29-.71c.1-.09.21-.17.33-.22.36-.15.81-.06,1.09.22.18.19.29.44.29.71s-.11.52-.29.7c-.19.19-.45.3-.71.3Z"/>
  <path d="m41.5,45.5h-14c-.55,0-1-.45-1-1v-14c0-.55.45-1,1-1h14c.55,0,1,.45,1,1v4.68c0,.55-.45,1-1,1s-1-.45-1-1v-3.68h-12v12h12v-1.76c0-.55.45-1,1-1s1,.45,1,1v2.76c0,.55-.45,1-1,1Z"/>
  <path d="m36.25,36.75h-3.5c-.55,0-1-.45-1-1v-5.25c0-.55.45-1,1-1h3.5c.55,0,1,.45,1,1v5.25c0,.55-.45,1-1,1Zm-2.5-2h1.5v-3.25h-1.5v3.25Z"/>
  <path d="m23.5,24.5c-5.51,0-10-4.49-10-10,0-.55.45-1,1-1s1,.45,1,1c0,4.41,3.59,8,8,8s8-3.59,8-8c0-.55.45-1,1-1s1,.45,1,1c0,5.51-4.49,10-10,10Z"/>
  <g>
    <path d="m32.7,11.5H14.3c-.55,0-1-.45-1-1v-4c0-2.21,1.53-4,3.4-4h13.6c1.88,0,3.4,1.79,3.4,4v4c0,.55-.45,1-1,1Zm-17.4-2h16.4v-3c0-1.08-.64-2-1.4-2h-13.6c-.76,0-1.4.92-1.4,2v3Z"/>
    <path d="m32.29,14.5c-.06,0-.13,0-.19,0h-1.8s-15.4,0-15.4,0c-.59,0-1.33.01-1.87-.52-.35-.35-.53-.85-.53-1.48,0-.84.3-1.62.82-2.18.08-.47.49-.82.98-.82h18.4c.49,0,.9.35.98.82.52.56.82,1.34.82,2.18,0,.63-.18,1.13-.53,1.48-.49.48-1.12.53-1.68.53Zm-17.19-2h17.02c.12,0,.26,0,.38,0,0-.47-.21-.79-.4-.92-.04-.02-.07-.05-.1-.08H15s-.07.06-.1.08c-.18.13-.4.45-.4.92.12,0,.26,0,.38,0h.22Z"/>
  </g>
  <path d="m7.31,31.69c-.15,0-.3-.03-.45-.11-.49-.25-.69-.85-.44-1.34.22-.44.49-.87.79-1.28,1.62-2.17,4.2-3.47,6.9-3.47h18.79c1.61,0,3.19.45,4.55,1.3.47.29.61.91.32,1.38-.29.47-.91.61-1.38.32-1.05-.65-2.25-1-3.49-1H14.1c-2.11,0-4.04.97-5.3,2.66-.23.31-.43.64-.6.98-.18.35-.53.55-.89.55Z"/>
  <path d="m6.5,34.5c-.26,0-.52-.11-.71-.29-.09-.1-.16-.2-.21-.33-.05-.12-.08-.25-.08-.38s.03-.26.08-.38c.05-.13.12-.23.21-.33.1-.09.21-.16.33-.21.18-.08.38-.1.58-.06.06,0,.12.03.18.06.06.02.12.05.18.09.05.04.1.08.15.12.09.1.16.21.21.33.05.12.08.25.08.38,0,.26-.11.52-.29.71-.05.04-.1.08-.15.12-.06.04-.12.07-.18.09-.06.03-.12.05-.18.06-.07,0-.13.02-.2.02Z"/>
  <path d="m6.5,44.9c-.55,0-1-.45-1-1v-6.69c0-.55.45-1,1-1s1,.45,1,1v6.69c0,.55-.45,1-1,1Z"/>
  <path d="m13.5,44.9c-.55,0-1-.45-1-1v-5.4c0-.55.45-1,1-1s1,.45,1,1v5.4c0,.55-.45,1-1,1Z"/>
  <path d="m23.5,37.9c-.55,0-1-.45-1-1v-5.4c0-.55.45-1,1-1s1,.45,1,1v5.4c0,.55-.45,1-1,1Z"/>
  <path d="m23.5,31.94c-.56,0-1.07-.29-1.36-.77l-1.96-3.26c-.29-.49-.3-1.11-.02-1.6.28-.5.81-.81,1.38-.81h3.91c.57,0,1.1.31,1.38.81.28.5.27,1.11-.02,1.6l-1.96,3.26c-.29.48-.8.77-1.36.77Zm-.35-1.8h0Zm-.88-2.64l1.23,2.06,1.23-2.06h-2.47Z"/>
</svg>