<?xml version="1.0" encoding="UTF-8"?>
<svg id="_레이어_1" data-name="레이어 1" xmlns="http://www.w3.org/2000/svg" viewBox="0 0 48 48">
  <path d="m15.2,34.68c-.26,0-.52-.11-.71-.29-.09-.09-.16-.2-.21-.33-.05-.12-.08-.25-.08-.38,0-.27.11-.52.29-.71.28-.27.72-.37,1.09-.21.13.05.24.12.33.21.18.19.29.45.29.71s-.11.52-.29.71c-.19.18-.45.29-.71.29Z"/>
  <path d="m38.96,30.28c-.06,0-.13,0-.2-.02-.06,0-.12-.03-.18-.06-.06-.02-.12-.05-.18-.09-.05-.03-.1-.08-.15-.12-.04-.05-.08-.1-.12-.15-.04-.06-.07-.12-.09-.18-.03-.06-.05-.12-.06-.18-.01-.07-.02-.13-.02-.2,0-.26.11-.52.29-.71.28-.27.73-.36,1.09-.21.13.05.23.12.33.21.18.19.29.45.29.71s-.11.52-.29.71c-.1.09-.21.16-.33.21-.12.05-.25.08-.38.08Z"/>
  <g>
    <path d="m32.8,38.3c-.55,0-1-.45-1-1v-7.9h-15.6v1.35c0,.55-.45,1-1,1s-1-.45-1-1v-2.35c0-.55.45-1,1-1h17.6c.55,0,1,.45,1,1v8.9c0,.55-.45,1-1,1Z"/>
    <path d="m32.8,47H15.2c-.55,0-1-.45-1-1v-2.64c0-.55.45-1,1-1s1,.45,1,1v1.64h15.6v-1.97c0-.55.45-1,1-1s1,.45,1,1v2.97c0,.55-.45,1-1,1Z"/>
    <path d="m26.2,36h-4.4c-.55,0-1-.45-1-1v-6.6c0-.55.45-1,1-1h4.4c.55,0,1,.45,1,1v6.6c0,.55-.45,1-1,1Zm-3.4-2h2.4v-4.6h-2.4v4.6Z"/>
  </g>
  <path d="m24,20.6c-4.92,0-8.92-4-8.92-8.92,0-.55.45-1,1-1s1,.45,1,1c0,3.82,3.1,6.92,6.92,6.92s6.92-3.1,6.92-6.92c0-.55.45-1,1-1s1,.45,1,1c0,4.92-4,8.92-8.92,8.92Z"/>
  <g>
    <path d="m32.1,9.16H15.9c-.55,0-1-.45-1-1v-3.52c0-2.01,1.4-3.64,3.11-3.64h11.97c1.72,0,3.11,1.63,3.11,3.64v3.52c0,.55-.45,1-1,1Zm-15.19-2h14.19v-2.52c0-.89-.51-1.64-1.11-1.64h-11.97c-.6,0-1.11.75-1.11,1.64v2.52Z"/>
    <path d="m31.74,11.8c-.06,0-.12,0-.17,0h-1.58s-13.55,0-13.55,0c-.54.01-1.22.01-1.73-.5-.33-.33-.5-.8-.5-1.38,0-.76.26-1.46.73-1.97.1-.45.5-.79.98-.79h16.19c.48,0,.88.34.98.79.46.51.73,1.21.73,1.97,0,.59-.17,1.05-.5,1.38-.46.46-1.05.5-1.56.5Zm-15.13-2h14.98c.06,0,.14,0,.21,0-.03-.29-.16-.5-.29-.59-.02-.02-.04-.03-.06-.05h-14.88s-.04.03-.06.05c-.13.09-.26.31-.29.59.07,0,.14,0,.21,0h.2Z"/>
  </g>
  <path d="m38.96,36.44c-.55,0-1-.45-1-1v-2.99c0-.55.45-1,1-1s1,.45,1,1v2.99c0,.55-.45,1-1,1Z"/>
  <path d="m9.04,36.44c-.55,0-1-.45-1-1v-6.51c0-4.24,3.45-7.69,7.69-7.69h16.54c1.28,0,2.55.32,3.67.93,1.03.56,1.94,1.36,2.61,2.32.32.45.21,1.07-.24,1.39-.45.32-1.07.21-1.39-.24-.5-.71-1.17-1.31-1.94-1.72-.83-.45-1.76-.69-2.71-.69H15.73c-3.14,0-5.69,2.55-5.69,5.69v6.51c0,.55-.45,1-1,1Z"/>
  <path d="m24,27.15c-.54,0-1.03-.28-1.3-.74l-1.72-2.87c-.28-.47-.29-1.06-.02-1.53.27-.48.78-.77,1.32-.77h3.44c.55,0,1.05.3,1.32.77.27.48.26,1.06-.02,1.53l-1.72,2.87c-.28.46-.76.74-1.3.74Zm-.87-3.91l.87,1.46.87-1.46h-1.75Z"/>
  <path d="m11.24,46.12c-3.22,0-5.84-2.62-5.84-5.84s2.62-5.84,5.84-5.84c1.9,0,3.68.93,4.78,2.48.69.99,1.06,2.15,1.06,3.36s-.37,2.37-1.06,3.36c-1.09,1.55-2.88,2.48-4.78,2.48Zm0-9.68c-2.12,0-3.84,1.72-3.84,3.84s1.72,3.84,3.84,3.84c1.25,0,2.42-.61,3.14-1.63.46-.65.7-1.41.7-2.21s-.24-1.56-.7-2.21c-.72-1.02-1.89-1.63-3.14-1.63Z"/>
  <path d="m36.76,46.12c-3.22,0-5.84-2.62-5.84-5.84s2.62-5.84,5.84-5.84,5.84,2.62,5.84,5.84-2.62,5.84-5.84,5.84Zm0-9.68c-2.12,0-3.84,1.72-3.84,3.84s1.72,3.84,3.84,3.84,3.84-1.72,3.84-3.84-1.72-3.84-3.84-3.84Z"/>
</svg>