<?xml version="1.0" encoding="UTF-8"?>
<svg id="_레이어_1" data-name="레이어 1" xmlns="http://www.w3.org/2000/svg" viewBox="0 0 48 48">
  <g>
    <path d="m22,42h-7.53c-.55,0-1-.45-1-1s.45-1,1-1h6.53v-14H7v14h1.65c.55,0,1,.45,1,1s-.45,1-1,1h-2.65c-.55,0-1-.45-1-1v-16c0-.55.45-1,1-1h16c.55,0,1,.45,1,1v16c0,.55-.45,1-1,1Z"/>
    <path d="m11.6,42c-.55,0-1.05-.45-1.05-1s.4-1,.95-1h.09c.55,0,1,.45,1,1s-.45,1-1,1Z"/>
    <path d="m16,32h-4c-.55,0-1-.45-1-1v-6c0-.55.45-1,1-1h4c.55,0,1,.45,1,1v6c0,.55-.45,1-1,1Zm-3-2h2v-4h-2v4Z"/>
  </g>
  <g>
    <g>
      <path d="m42,19c-.26,0-.52-.11-.71-.29-.04-.05-.08-.1-.12-.15-.04-.06-.07-.12-.09-.18-.03-.06-.05-.12-.06-.18-.01-.07-.02-.13-.02-.2,0-.26.11-.52.29-.71.28-.28.73-.37,1.09-.21.12.05.23.12.33.21.18.19.29.45.29.71,0,.07-.01.13-.02.2-.01.06-.03.12-.06.18-.02.06-.05.12-.09.18-.04.05-.08.1-.12.15-.1.09-.21.16-.33.21-.12.05-.25.08-.38.08Z"/>
      <path d="m34,42h-18c-.55,0-1-.45-1-1s.45-1,1-1h16.97l-.18-7.18c0-.27.1-.54.29-.73.19-.19.45-.31.73-.29l7.18.18v-8.85c0-.55.45-1,1-1s1,.45,1,1v9.88c0,.27-.11.53-.3.72-.19.19-.45.3-.72.28l-7.16-.18.18,7.16c0,.27-.1.53-.28.72-.19.19-.45.3-.72.3Z"/>
      <path d="m16,24.71c-.55,0-1-.45-1-1V7c0-.55.45-1,1-1h26c.55,0,1,.45,1,1v7c0,.55-.45,1-1,1s-1-.45-1-1v-6h-24v15.71c0,.55-.45,1-1,1Z"/>
      <path d="m34,42c-.12,0-.25-.02-.37-.07-.37-.15-.62-.5-.63-.9l-.21-8.21c0-.27.1-.54.29-.73.19-.19.45-.31.73-.29l8.21.21c.4,0,.75.26.9.63.15.37.06.8-.22,1.08l-8,8c-.19.19-.45.29-.71.29Zm.82-8.18l.12,4.83,4.71-4.71-4.83-.12Z"/>
    </g>
    <path d="m37,15h-16c-.55,0-1-.45-1-1s.45-1,1-1h16c.55,0,1,.45,1,1s-.45,1-1,1Z"/>
    <path d="m33,21h-12c-.55,0-1-.45-1-1s.45-1,1-1h12c.55,0,1,.45,1,1s-.45,1-1,1Z"/>
  </g>
</svg>