<?xml version="1.0" encoding="UTF-8"?>
<svg id="_레이어_1" data-name="레이어 1" xmlns="http://www.w3.org/2000/svg" viewBox="0 0 48 48">
  <g>
    <path d="m31.64,32.5h-6.31c-.55,0-1-.45-1-1s.45-1,1-1h5.31v-13h-13v13h1.17c.55,0,1,.45,1,1s-.45,1-1,1h-2.17c-.55,0-1-.45-1-1v-15c0-.55.45-1,1-1h15c.55,0,1,.45,1,1v15c0,.55-.45,1-1,1Z"/>
    <path d="m22.64,32.5c-.55,0-1.04-.45-1.04-1s.41-1,.96-1h.08c.55,0,1,.45,1,1s-.45,1-1,1Z"/>
    <path d="m26.01,23.12h-3.75c-.55,0-1-.45-1-1v-5.62c0-.55.45-1,1-1h3.75c.55,0,1,.45,1,1v5.62c0,.55-.45,1-1,1Zm-2.75-2h1.75v-3.62h-1.75v3.62Z"/>
  </g>
  <path d="m30.66,8.5H8.59c-.55,0-1-.45-1-1s.45-1,1-1h22.07c.55,0,1,.45,1,1s-.45,1-1,1Z"/>
  <path d="m34.5,8.5h-.02c-.55,0-1-.45-1-1s.45-1,1-1,1.01.45,1.01,1-.44,1-.99,1Z"/>
  <path d="m41.14,24.5h-6c-.55,0-1-.45-1-1s.45-1,1-1h5v-14h-2.06c-.55,0-1-.45-1-1s.45-1,1-1h3.06c.55,0,1,.45,1,1v16c0,.55-.45,1-1,1Z"/>
  <path d="m10.86,12.5c-.26,0-.52-.1-.71-.3l-4-4.08c-.38-.39-.38-1.01,0-1.4l3.83-3.92c.39-.39,1.02-.4,1.41-.01s.4,1.02.01,1.41l-3.15,3.22,3.31,3.39c.39.39.38,1.03-.01,1.41-.19.19-.45.29-.7.29Z"/>
  <g>
    <path d="m38.41,41.5H6.86c-.55,0-1-.45-1-1v-17c0-.55.45-1,1-1h6.27c.55,0,1,.45,1,1s-.45,1-1,1h-5.27v15h30.55c.55,0,1,.45,1,1s-.45,1-1,1Z"/>
    <path d="m36.3,45.5c-.25,0-.5-.09-.7-.29-.39-.39-.4-1.02-.01-1.41l3.15-3.22-3.31-3.39c-.39-.39-.38-1.03.01-1.41.39-.39,1.03-.38,1.41.01l4,4.08c.38.39.38,1.01,0,1.4l-3.83,3.92c-.2.2-.46.3-.71.3Z"/>
  </g>
</svg>