<?xml version="1.0" encoding="UTF-8"?>
<svg id="_레이어_1" data-name="레이어 1" xmlns="http://www.w3.org/2000/svg" viewBox="0 0 48 48">
  <g>
    <path d="m13.72,43.07H4.38c-.55,0-1-.45-1-1v-22.47c0-.55.45-1,1-1h16.47c.55,0,1,.45,1,1s-.45,1-1,1H5.38v20.47h8.34c.55,0,1,.45,1,1s-.45,1-1,1Z"/>
    <path d="m26.84,43.07h-4.96c-.55,0-1-.45-1-1s.45-1,1-1h3.96v-14.11c0-.55.45-1,1-1s1,.45,1,1v15.11c0,.55-.45,1-1,1Z"/>
    <path d="m17.85,43.07h-.13c-.55,0-1-.45-1-1s.45-1,1-1h.13c.55,0,1,.45,1,1s-.45,1-1,1Z"/>
    <path d="m18.42,29.02h-5.62c-.55,0-1-.45-1-1v-8.42c0-.55.45-1,1-1h5.62c.55,0,1,.45,1,1v8.42c0,.55-.45,1-1,1Zm-4.62-2h3.62v-6.42h-3.62v6.42Z"/>
  </g>
  <g>
    <g>
      <path d="m40.17,26.23c-.26,0-.52-.11-.71-.29-.04-.05-.09-.1-.12-.15-.04-.06-.07-.12-.09-.18-.03-.06-.05-.12-.06-.18-.01-.07-.02-.13-.02-.2,0-.13.03-.26.08-.38.05-.12.12-.23.21-.33.28-.27.72-.36,1.09-.21.12.05.23.12.33.21.09.1.16.21.21.33.05.12.08.25.08.38,0,.07-.01.13-.02.2-.01.06-.03.12-.06.18-.02.06-.05.12-.09.18-.04.05-.08.1-.12.15-.19.18-.45.29-.71.29Z"/>
      <path d="m32.39,29.4c-6.75,0-12.23-5.49-12.23-12.23s5.49-12.23,12.23-12.23,12.23,5.49,12.23,12.23c0,1.89-.42,3.71-1.25,5.39-.24.5-.84.7-1.34.46-.5-.24-.7-.84-.46-1.34.69-1.41,1.05-2.93,1.05-4.51,0-5.64-4.59-10.23-10.23-10.23s-10.23,4.59-10.23,10.23,4.59,10.23,10.23,10.23c1.09,0,2.16-.17,3.18-.5.53-.17,1.09.12,1.26.64.17.52-.12,1.09-.64,1.26-1.22.4-2.5.6-3.8.6Z"/>
    </g>
    <g>
      <g>
        <path d="m38.01,17.87c-.55,0-1-.45-1-1,0-2.59-2.07-4.7-4.61-4.7-1.39,0-2.7.63-3.58,1.73-.35.43-.98.5-1.41.16-.43-.34-.5-.97-.16-1.41,1.26-1.58,3.14-2.49,5.14-2.49,3.65,0,6.61,3,6.61,6.7,0,.55-.45,1-1,1Z"/>
        <path d="m38,18.46h0c-.27,0-.53-.11-.72-.31l-1.12-1.16c-.38-.4-.37-1.03.03-1.41.4-.38,1.03-.37,1.41.03l.4.42.41-.41c.39-.39,1.02-.4,1.41-.01.39.39.4,1.02.01,1.41l-1.13,1.15c-.19.19-.45.3-.71.3Z"/>
      </g>
      <g>
        <path d="m32.39,24.16c-3.65,0-6.61-3-6.61-6.7,0-.55.45-1,1-1s1,.45,1,1c0,2.59,2.07,4.7,4.61,4.7,1.46,0,2.81-.68,3.69-1.88.33-.44.95-.54,1.4-.21.44.33.54.95.21,1.4-1.24,1.68-3.22,2.69-5.3,2.69Z"/>
        <path d="m27.9,19.04c-.26,0-.52-.1-.72-.31l-.4-.42-.41.41c-.39.39-1.02.4-1.41.01-.39-.39-.4-1.02-.01-1.41l1.13-1.15c.19-.19.42-.31.72-.3.27,0,.53.11.72.31l1.12,1.16c.38.4.37,1.03-.03,1.41-.19.19-.44.28-.69.28Z"/>
      </g>
    </g>
  </g>
</svg>