<?xml version="1.0" encoding="UTF-8"?>
<svg id="_레이어_1" data-name="레이어 1" xmlns="http://www.w3.org/2000/svg" viewBox="0 0 48 48">
  <g>
    <path d="m22.21,27.58c-6.12,0-11.1-4.98-11.1-11.1s4.98-11.1,11.1-11.1,11.1,4.98,11.1,11.1-4.98,11.1-11.1,11.1Zm0-20.2c-5.02,0-9.1,4.08-9.1,9.1s4.08,9.1,9.1,9.1,9.1-4.08,9.1-9.1-4.08-9.1-9.1-9.1Z"/>
    <g>
      <path d="m27.9,15.64c-.06,0-.13,0-.19-.02-.06,0-.13-.03-.19-.05-.06-.03-.12-.06-.17-.1-.06-.03-.11-.08-.15-.12-.19-.19-.3-.44-.3-.71,0-.13.03-.26.08-.38.05-.12.12-.23.22-.32.04-.05.09-.09.15-.13.05-.03.11-.07.17-.09.06-.03.13-.05.19-.06.19-.04.39-.02.58.06.12.05.23.12.32.22.1.09.17.2.22.32.05.12.08.25.08.38,0,.27-.11.52-.3.71-.09.09-.2.16-.32.22-.13.05-.25.07-.39.07Z"/>
      <path d="m22.21,23.54c-3.89,0-7.06-3.17-7.06-7.06s3.17-7.06,7.06-7.06c1.34,0,2.64.38,3.76,1.09.47.29.61.91.31,1.38-.3.47-.91.61-1.38.31-.81-.51-1.74-.78-2.7-.78-2.79,0-5.06,2.27-5.06,5.06s2.27,5.06,5.06,5.06c2.23,0,4.17-1.43,4.83-3.55.16-.53.73-.82,1.25-.66.53.16.82.72.66,1.25-.92,2.97-3.63,4.96-6.74,4.96Z"/>
    </g>
  </g>
  <g>
    <g>
      <path d="m34.63,8.85c-.55,0-1-.45-1-1V1.87c0-.55.45-1,1-1s1,.45,1,1v5.98c0,.55-.45,1-1,1Z"/>
      <path d="m37.62,5.86h-5.98c-.55,0-1-.45-1-1s.45-1,1-1h5.98c.55,0,1,.45,1,1s-.45,1-1,1Z"/>
    </g>
    <g>
      <path d="m40.24,14.84c-.55,0-1-.45-1-1v-3.74c0-.55.45-1,1-1s1,.45,1,1v3.74c0,.55-.45,1-1,1Z"/>
      <path d="m42.11,12.97h-3.74c-.55,0-1-.45-1-1s.45-1,1-1h3.74c.55,0,1,.45,1,1s-.45,1-1,1Z"/>
    </g>
  </g>
  <g>
    <g>
      <path d="m9.75,47.13h-4.26c-1.33,0-2.42-1.09-2.42-2.42v-5.87c0-.55.45-1,1-1s1,.45,1,1v5.87c0,.23.19.42.42.42h4.26c.23,0,.42-.19.42-.42v-15.62c0-.23-.19-.42-.42-.42h-4.26c-.23,0-.42.19-.42.42v2.84c0,.55-.45,1-1,1s-1-.45-1-1v-2.84c0-1.33,1.09-2.42,2.42-2.42h4.26c1.33,0,2.42,1.09,2.42,2.42v15.62c0,1.33-1.09,2.42-2.42,2.42Z"/>
      <path d="m4.07,36c-.13,0-.26-.03-.38-.08-.13-.05-.24-.12-.33-.21-.18-.19-.29-.45-.29-.71s.11-.52.29-.71c.09-.09.2-.16.33-.21.36-.16.81-.07,1.09.21.18.19.29.45.29.71,0,.07,0,.13-.02.2,0,.06-.03.12-.06.18-.02.06-.05.12-.09.17-.04.06-.08.11-.12.16-.19.18-.45.29-.71.29Z"/>
    </g>
    <g>
      <path d="m21.23,33.3h0l-9.54-.03c-.55,0-1-.45-1-1,0-.55.45-1,1-1h0l9.54.03c.55,0,1,.45,1,1,0,.55-.45,1-1,1Z"/>
      <path d="m11.94,44.49c-.54,0-.99-.44-1-.98,0-.55.43-1.01.98-1.02l11.24-.19c.51-.01,1.01.43,1.02.98,0,.55-.43,1.01-.98,1.02l-11.24.19h-.02Z"/>
    </g>
    <path d="m23.91,37.64c-.41,0-.79-.25-.94-.65-.19-.52.07-1.09.59-1.29l5.87-2.18c.88-.33,1.43-1.16,1.18-1.81l-.15-.41c-.24-.65-1.19-.92-2.08-.6l-6.81,2.53c-.52.19-1.09-.07-1.29-.59-.19-.52.07-1.09.59-1.29l6.81-2.53c1.93-.72,4.02.08,4.65,1.78l.15.41c.63,1.7-.43,3.66-2.36,4.38l-5.87,2.18c-.11.04-.23.06-.35.06Z"/>
    <path d="m23.18,44.3c-.41,0-.79-.25-.94-.65-.19-.52.07-1.09.59-1.29l15-5.57c.51-.19,1.09.07,1.29.59.19.52-.07,1.09-.59,1.29l-15,5.57c-.11.04-.23.06-.35.06Z"/>
    <path d="m23.91,37.64c-.41,0-.79-.25-.94-.65-.19-.52.07-1.09.59-1.29l10.31-3.83c.51-.19,1.09.07,1.29.59.19.52-.07,1.09-.59,1.29l-10.31,3.83c-.11.04-.23.06-.35.06Z"/>
    <path d="m38.18,38.74c-.14,0-.29-.03-.43-.1-.5-.24-.71-.83-.47-1.33l5.53-11.64c.38-.82-.12-1.88-1.13-2.34-.5-.23-1.05-.28-1.54-.13-.45.14-.79.43-.97.81l-4.03,9.2c-.22.51-.81.74-1.32.51-.51-.22-.74-.81-.51-1.32l4.04-9.21c.43-.93,1.21-1.6,2.21-1.9.96-.29,2.01-.22,2.96.22,2,.92,2.95,3.16,2.11,5l-5.53,11.65c-.17.36-.53.57-.9.57Z"/>
  </g>
</svg>