<?xml version="1.0" encoding="UTF-8"?>
<svg id="_레이어_1" data-name="레이어 1" xmlns="http://www.w3.org/2000/svg" viewBox="0 0 48 48">
  <g>
    <path d="m17.39,43.5c-6.07,0-11-4.93-11-11s4.93-11,11-11,11,4.93,11,11-4.93,11-11,11Zm0-20c-4.96,0-9,4.04-9,9s4.04,9,9,9,9-4.04,9-9-4.04-9-9-9Z"/>
    <g>
      <path d="m23.03,31.68c-.13,0-.26-.03-.38-.08-.13-.05-.23-.12-.33-.21-.04-.05-.09-.1-.12-.16-.04-.05-.07-.11-.09-.17-.03-.06-.05-.12-.06-.18,0-.07-.02-.13-.02-.2,0-.26.11-.52.29-.71.1-.09.2-.16.33-.21.18-.08.38-.1.58-.06.06.01.12.03.18.06.06.02.12.05.17.09.06.03.11.08.16.12.18.19.29.45.29.71,0,.07,0,.13-.02.2,0,.06-.03.12-.06.18-.02.06-.05.12-.09.17-.04.06-.08.11-.12.16-.19.18-.45.29-.71.29Z"/>
      <path d="m17.39,39.5c-3.86,0-7-3.14-7-7s3.14-7,7-7c1.33,0,2.62.37,3.73,1.08.47.29.61.91.31,1.38-.29.47-.91.61-1.38.31-.8-.5-1.72-.77-2.67-.77-2.76,0-5,2.24-5,5s2.24,5,5,5c2.2,0,4.12-1.41,4.78-3.51.16-.53.73-.82,1.25-.66.53.16.82.72.66,1.25-.92,2.94-3.6,4.92-6.69,4.92Z"/>
    </g>
  </g>
  <g>
    <g>
      <g>
        <path d="m29.96,18.33s-.02,0-.04,0c-6.39-.23-12.85-2-12.85-5.42s7.21-5.44,14.33-5.44,14.33,1.87,14.33,5.44c0,2.07-2.42,3.73-6.81,4.69-.54.12-1.07-.22-1.19-.76-.12-.54.22-1.07.76-1.19,3.84-.84,5.24-2.1,5.24-2.74,0-1.37-4.92-3.44-12.33-3.44s-12.33,2.07-12.33,3.44c0,1.26,4.15,3.18,10.92,3.42.55.02.98.48.96,1.04-.02.54-.46.96-1,.96Z"/>
        <path d="m34.37,18.36c-.49,0-.91-.35-.99-.85-.08-.54.31-1.05.84-1.14h0s.02,0,.03,0c.55-.08,1.06.3,1.14.84.08.54-.31,1.04-.84,1.13h0s0,0,0,0c0,0-.02,0-.03,0-.05,0-.1.01-.15.01Z"/>
        <path d="m31.41,22.8c-7.12,0-14.33-1.87-14.33-5.44,0-.55.45-1,1-1s1,.45,1,1c0,1.37,4.92,3.44,12.33,3.44s12.33-2.07,12.33-3.44c0-.55.45-1,1-1s1,.45,1,1c0,3.57-7.21,5.44-14.33,5.44Z"/>
        <path d="m18.07,18.35c-.55,0-1-.45-1-1v-4.44c0-.55.45-1,1-1s1,.45,1,1v4.44c0,.55-.45,1-1,1Z"/>
        <path d="m44.74,18.35c-.55,0-1-.45-1-1v-4.44c0-.55.45-1,1-1s1,.45,1,1v4.44c0,.55-.45,1-1,1Z"/>
      </g>
      <g>
        <path d="m31.41,22.8c-7.12,0-14.33-1.87-14.33-5.44,0-.55.45-1,1-1s1,.45,1,1c0,1.37,4.92,3.44,12.33,3.44s12.33-2.07,12.33-3.44c0-.55.45-1,1-1s1,.45,1,1c0,3.57-7.21,5.44-14.33,5.44Z"/>
        <path d="m31.41,27.24c-.55,0-1-.45-1-1s.45-1,1-1c7.41,0,12.33-2.07,12.33-3.44,0-.55.45-1,1-1s1,.45,1,1c0,3.57-7.21,5.44-14.33,5.44Z"/>
        <path d="m44.74,22.8c-.55,0-1-.45-1-1v-4.44c0-.55.45-1,1-1s1,.45,1,1v4.44c0,.55-.45,1-1,1Z"/>
      </g>
      <path d="m31.41,27.24c-.55,0-1-.45-1-1s.45-1,1-1c7.41,0,12.33-2.07,12.33-3.44,0-.55.45-1,1-1s1,.45,1,1c0,3.57-7.21,5.44-14.33,5.44Z"/>
      <path d="m44.74,27.24c-.55,0-1-.45-1-1v-4.44c0-.55.45-1,1-1s1,.45,1,1v4.44c0,.55-.45,1-1,1Z"/>
      <path d="m31.41,31.69c-.55,0-1-.45-1-1s.45-1,1-1c7.41,0,12.33-2.07,12.33-3.44,0-.55.45-1,1-1s1,.45,1,1c0,3.57-7.21,5.44-14.33,5.44Z"/>
      <path d="m31.41,36.13c-.55,0-1-.45-1-1s.45-1,1-1c7.41,0,12.33-2.07,12.33-3.44,0-.55.45-1,1-1s1,.45,1,1c0,3.57-7.21,5.44-14.33,5.44Z"/>
      <path d="m44.74,31.69c-.55,0-1-.45-1-1v-4.44c0-.55.45-1,1-1s1,.45,1,1v4.44c0,.55-.45,1-1,1Z"/>
      <path d="m31.41,36.13c-.55,0-1-.45-1-1s.45-1,1-1c7.41,0,12.33-2.07,12.33-3.44,0-.55.45-1,1-1s1,.45,1,1c0,3.57-7.21,5.44-14.33,5.44Z"/>
      <path d="m31.41,40.57c-.55,0-1-.45-1-1s.45-1,1-1h.24c7.38-.05,12.09-2.07,12.09-3.44,0-.55.45-1,1-1s1,.45,1,1c0,3.52-7.08,5.4-14.08,5.44h-.25Z"/>
      <path d="m44.74,36.13c-.55,0-1-.45-1-1v-4.44c0-.55.45-1,1-1s1,.45,1,1v4.44c0,.55-.45,1-1,1Z"/>
    </g>
    <g>
      <path d="m6.22,12.43c-.55,0-1-.45-1-1v-5.93c0-.55.45-1,1-1s1,.45,1,1v5.93c0,.55-.45,1-1,1Z"/>
      <path d="m9.19,9.46H3.26c-.55,0-1-.45-1-1s.45-1,1-1h5.93c.55,0,1,.45,1,1s-.45,1-1,1Z"/>
    </g>
    <g>
      <path d="m11.78,18.35c-.55,0-1-.45-1-1v-3.7c0-.55.45-1,1-1s1,.45,1,1v3.7c0,.55-.45,1-1,1Z"/>
      <path d="m13.63,16.5h-3.7c-.55,0-1-.45-1-1s.45-1,1-1h3.7c.55,0,1,.45,1,1s-.45,1-1,1Z"/>
    </g>
  </g>
</svg>