<?xml version="1.0" encoding="UTF-8"?>
<svg id="_레이어_1" data-name="레이어 1" xmlns="http://www.w3.org/2000/svg" viewBox="0 0 48 48">
  <path d="m20.67,40.18c-.27,0-.53-.1-.71-.29-.19-.18-.29-.44-.29-.7,0-.14.02-.27.07-.39.05-.12.13-.23.22-.32.37-.37,1.04-.38,1.41,0,.1.09.17.2.22.32s.08.25.08.39c0,.26-.11.52-.3.7-.18.19-.44.29-.7.29Z"/>
  <path d="m15.48,36.11c-7.12,0-14.33-1.87-14.33-5.44s7.21-5.44,14.33-5.44,14.33,1.87,14.33,5.44-7.21,5.44-14.33,5.44Zm0-8.89c-7.41,0-12.33,2.07-12.33,3.44s4.92,3.44,12.33,3.44,12.33-2.07,12.33-3.44-4.92-3.44-12.33-3.44Z"/>
  <path d="m15.48,40.56c-7.12,0-14.33-1.87-14.33-5.44,0-.55.45-1,1-1s1,.45,1,1c0,1.37,4.92,3.44,12.33,3.44.7,0,1.39-.02,2.07-.05.55-.03,1.02.39,1.05.94.03.55-.39,1.02-.94,1.05-.71.04-1.43.06-2.17.06Z"/>
  <path d="m25.06,39.2c-.42,0-.8-.26-.95-.67-.18-.52.1-1.09.62-1.27,2.13-.73,3.08-1.61,3.08-2.15s.45-1,1-1,1,.45,1,1c0,1.15-.77,2.78-4.43,4.04-.11.04-.22.06-.33.06Z"/>
  <path d="m2.15,36.11c-.55,0-1-.45-1-1v-4.44c0-.55.45-1,1-1s1,.45,1,1v4.44c0,.55-.45,1-1,1Z"/>
  <path d="m28.81,36.11c-.55,0-1-.45-1-1v-4.44c0-.55.45-1,1-1s1,.45,1,1v4.44c0,.55-.45,1-1,1Z"/>
  <path d="m15.48,45c-7.12,0-14.33-1.87-14.33-5.44,0-.55.45-1,1-1s1,.45,1,1c0,1.37,4.92,3.44,12.33,3.44s12.33-2.07,12.33-3.44c0-.55.45-1,1-1s1,.45,1,1c0,3.57-7.21,5.44-14.33,5.44Z"/>
  <path d="m2.15,40.56c-.55,0-1-.45-1-1v-4.44c0-.55.45-1,1-1s1,.45,1,1v4.44c0,.55-.45,1-1,1Z"/>
  <path d="m28.81,40.56c-.55,0-1-.45-1-1v-4.44c0-.55.45-1,1-1s1,.45,1,1v4.44c0,.55-.45,1-1,1Z"/>
  <g>
    <g>
      <path d="m31.07,16.83s-.02,0-.04,0c-6.39-.23-12.85-2-12.85-5.42s7.21-5.44,14.33-5.44,14.33,1.87,14.33,5.44c0,2.07-2.42,3.73-6.81,4.69-.54.12-1.07-.22-1.19-.76-.12-.54.22-1.07.76-1.19,3.84-.84,5.24-2.1,5.24-2.74,0-1.37-4.92-3.44-12.33-3.44s-12.33,2.07-12.33,3.44c0,1.26,4.15,3.18,10.92,3.42.55.02.98.48.96,1.04-.02.54-.46.96-1,.96Z"/>
      <path d="m35.48,16.86c-.49,0-.92-.35-.99-.85-.08-.54.32-1.06.86-1.14,0,0,.01,0,.02,0,.54-.08,1.05.3,1.13.85.08.53-.31,1.04-.84,1.13l-.12-.78.12.78s-.02,0-.03,0c-.05,0-.1.01-.15.01Zm.02-1h0Z"/>
      <path d="m32.52,21.3c-7.12,0-14.33-1.87-14.33-5.44,0-.55.45-1,1-1s1,.45,1,1c0,1.37,4.92,3.44,12.33,3.44s12.33-2.07,12.33-3.44c0-.55.45-1,1-1s1,.45,1,1c0,3.57-7.21,5.44-14.33,5.44Z"/>
      <path d="m19.19,16.85c-.55,0-1-.45-1-1v-4.44c0-.55.45-1,1-1s1,.45,1,1v4.44c0,.55-.45,1-1,1Z"/>
      <path d="m45.85,16.85c-.55,0-1-.45-1-1v-4.44c0-.55.45-1,1-1s1,.45,1,1v4.44c0,.55-.45,1-1,1Z"/>
    </g>
    <g>
      <path d="m32.52,21.3c-7.12,0-14.33-1.87-14.33-5.44,0-.55.45-1,1-1s1,.45,1,1c0,1.37,4.92,3.44,12.33,3.44s12.33-2.07,12.33-3.44c0-.55.45-1,1-1s1,.45,1,1c0,3.57-7.21,5.44-14.33,5.44Z"/>
      <path d="m32.52,25.74c-7.12,0-14.33-1.87-14.33-5.44,0-.55.45-1,1-1s1,.45,1,1c0,1.37,4.92,3.44,12.33,3.44s12.33-2.07,12.33-3.44c0-.55.45-1,1-1s1,.45,1,1c0,3.57-7.21,5.44-14.33,5.44Z"/>
      <path d="m19.19,21.3c-.55,0-1-.45-1-1v-4.44c0-.55.45-1,1-1s1,.45,1,1v4.44c0,.55-.45,1-1,1Z"/>
      <path d="m45.85,21.3c-.55,0-1-.45-1-1v-4.44c0-.55.45-1,1-1s1,.45,1,1v4.44c0,.55-.45,1-1,1Z"/>
    </g>
    <path d="m32.52,25.74c-7.12,0-14.33-1.87-14.33-5.44,0-.55.45-1,1-1s1,.45,1,1c0,1.37,4.92,3.44,12.33,3.44s12.33-2.07,12.33-3.44c0-.55.45-1,1-1s1,.45,1,1c0,3.57-7.21,5.44-14.33,5.44Z"/>
    <path d="m45.85,25.74c-.55,0-1-.45-1-1v-4.44c0-.55.45-1,1-1s1,.45,1,1v4.44c0,.55-.45,1-1,1Z"/>
    <path d="m32.52,30.19c-.55,0-1-.45-1-1s.45-1,1-1c7.41,0,12.33-2.07,12.33-3.44,0-.55.45-1,1-1s1,.45,1,1c0,3.57-7.21,5.44-14.33,5.44Z"/>
    <path d="m32.52,34.63c-.55,0-1-.45-1-1s.45-1,1-1c7.41,0,12.33-2.07,12.33-3.44,0-.55.45-1,1-1s1,.45,1,1c0,3.57-7.21,5.44-14.33,5.44Z"/>
    <path d="m45.85,30.19c-.55,0-1-.45-1-1v-4.44c0-.55.45-1,1-1s1,.45,1,1v4.44c0,.55-.45,1-1,1Z"/>
    <path d="m32.52,34.63c-.55,0-1-.45-1-1s.45-1,1-1c7.41,0,12.33-2.07,12.33-3.44,0-.55.45-1,1-1s1,.45,1,1c0,3.57-7.21,5.44-14.33,5.44Z"/>
    <path d="m32.52,39.07c-.55,0-1-.45-1-1s.45-1,1-1h.24c7.38-.05,12.09-2.07,12.09-3.44,0-.55.45-1,1-1s1,.45,1,1c0,3.52-7.08,5.4-14.08,5.44h-.25Z"/>
    <path d="m45.85,34.63c-.55,0-1-.45-1-1v-4.44c0-.55.45-1,1-1s1,.45,1,1v4.44c0,.55-.45,1-1,1Z"/>
  </g>
  <g>
    <path d="m7.33,10.93c-.55,0-1-.45-1-1V4c0-.55.45-1,1-1s1,.45,1,1v5.93c0,.55-.45,1-1,1Z"/>
    <path d="m10.3,7.96h-5.93c-.55,0-1-.45-1-1s.45-1,1-1h5.93c.55,0,1,.45,1,1s-.45,1-1,1Z"/>
  </g>
  <g>
    <path d="m12.89,16.85c-.55,0-1-.45-1-1v-3.7c0-.55.45-1,1-1s1,.45,1,1v3.7c0,.55-.45,1-1,1Z"/>
    <path d="m14.74,15h-3.7c-.55,0-1-.45-1-1s.45-1,1-1h3.7c.55,0,1,.45,1,1s-.45,1-1,1Z"/>
  </g>
</svg>