<?xml version="1.0" encoding="UTF-8"?>
<svg id="_레이어_1" data-name="레이어 1" xmlns="http://www.w3.org/2000/svg" viewBox="0 0 48 48">
  <path d="m17.89,6.5c4.04,0,7.33,3.29,7.33,7.33s-3.29,7.33-7.33,7.33-7.33-3.29-7.33-7.33,3.29-7.33,7.33-7.33m0-2c-5.15,0-9.33,4.18-9.33,9.33s4.18,9.33,9.33,9.33,9.33-4.18,9.33-9.33-4.18-9.33-9.33-9.33h0Z"/>
  <path d="m10.81,40.5c-.26,0-.52-.11-.7-.29-.19-.19-.29-.45-.29-.71,0-.13.02-.26.07-.38.05-.12.13-.23.22-.33.37-.37,1.04-.37,1.41,0,.1.1.17.21.22.33.05.12.07.25.07.38,0,.26-.1.52-.29.71-.18.18-.44.29-.71.29Z"/>
  <path d="m19.27,40.5h-4.17c-.55,0-1-.45-1-1s.45-1,1-1h4.17c.55,0,1,.45,1,1s-.45,1-1,1Z"/>
  <path d="m7.53,40.5H3.11c-.55,0-1-.45-1-1,0-8.7,7.08-15.78,15.78-15.78.97,0,1.94.09,2.89.26.54.1.9.62.8,1.16s-.63.9-1.16.8c-.83-.15-1.68-.23-2.52-.23-7.26,0-13.23,5.65-13.74,12.78h3.38c.55,0,1,.45,1,1s-.45,1-1,1Z"/>
  <g>
    <g>
      <path d="m37.39,35.5c-.26,0-.52-.11-.71-.29-.18-.19-.29-.45-.29-.71s.11-.52.29-.71c.38-.37,1.05-.37,1.42,0,.18.19.29.45.29.71s-.11.52-.29.71c-.19.18-.45.29-.71.29Z"/>
      <path d="m33.83,37.44c-2.76,0-5-2.24-5-5s2.24-5,5-5c2.42,0,4.49,1.73,4.92,4.1.1.54-.26,1.06-.81,1.16-.54.1-1.06-.26-1.16-.81-.26-1.42-1.5-2.46-2.95-2.46-1.65,0-3,1.35-3,3s1.35,3,3,3c.55,0,1,.45,1,1s-.45,1-1,1Z"/>
    </g>
    <path d="m35.39,44.5h-3c-.52,0-.96-.4-1-.92l-.23-3.03c-.35-.12-.69-.26-1.03-.43l-2.31,1.98c-.4.34-.99.32-1.36-.05l-2.12-2.12c-.37-.37-.39-.96-.05-1.36l1.98-2.31c-.16-.33-.31-.67-.43-1.03l-3.03-.23c-.52-.04-.92-.47-.92-1v-3c0-.52.4-.96.92-1l3.03-.23c.12-.35.26-.69.43-1.03l-1.98-2.31c-.34-.4-.32-.99.05-1.36l2.12-2.12c.37-.37.96-.39,1.36-.05l2.31,1.98c.33-.16.67-.31,1.03-.43l.23-3.03c.04-.52.47-.92,1-.92h3c.52,0,.96.4,1,.92l.23,3.03c.35.12.69.26,1.03.43l2.31-1.98c.4-.34.99-.32,1.36.05l2.12,2.12c.37.37.39.96.05,1.36l-1.98,2.31c.16.33.31.67.43,1.03l3.03.23c.52.04.92.47.92,1v3c0,.52-.4.96-.92,1l-3.03.23c-.12.35-.26.69-.43,1.03l1.98,2.31c.34.4.32.99-.05,1.36l-2.12,2.12c-.37.37-.96.39-1.36.05l-2.31-1.98c-.33.16-.67.31-1.03.43l-.23,3.03c-.04.52-.47.92-1,.92Zm-2.07-2h1.15l.22-2.8c.03-.43.34-.79.76-.89.64-.16,1.25-.41,1.81-.75.37-.22.84-.19,1.17.1l2.13,1.83.81-.81-1.83-2.13c-.28-.33-.32-.8-.1-1.17.34-.56.6-1.18.75-1.81.1-.42.46-.73.89-.76l2.8-.22v-1.15l-2.8-.22c-.43-.03-.79-.34-.89-.76-.16-.64-.41-1.25-.75-1.81-.22-.37-.19-.84.1-1.17l1.83-2.13-.81-.81-2.13,1.83c-.33.28-.8.32-1.17.1-.56-.34-1.17-.6-1.81-.75-.42-.1-.73-.46-.76-.89l-.22-2.8h-1.15l-.22,2.8c-.03.43-.34.79-.76.89-.64.16-1.25.41-1.81.75-.37.22-.84.19-1.17-.1l-2.13-1.83-.81.81,1.83,2.13c.28.33.32.8.1,1.17-.34.56-.6,1.18-.75,1.81-.1.42-.46.73-.89.76l-2.8.22v1.15l2.8.22c.43.03.79.34.89.76.16.64.41,1.25.75,1.81.22.37.19.84-.1,1.17l-1.83,2.13.81.81,2.13-1.83c.33-.28.8-.32,1.17-.1.56.34,1.17.6,1.81.75.42.1.73.46.76.89l.22,2.8Zm11.57-8.5h0,0Z"/>
  </g>
</svg>