<?xml version="1.0" encoding="UTF-8"?>
<svg id="_레이어_1" data-name="레이어 1" xmlns="http://www.w3.org/2000/svg" viewBox="0 0 48 48">
  <path d="m8.26,42.24h-.44c-2.2,0-4-1.79-4-4v-14.01c0-2.2,1.79-4,4-4h22.01c2.2,0,4,1.79,4,4v2.01c0,.55-.45,1-1,1s-1-.45-1-1v-2.01c0-1.1-.9-2-2-2H7.82c-1.1,0-2,.9-2,2v14.01c0,1.1.9,2,2,2h.44c.55,0,1,.45,1,1s-.45,1-1,1Z"/>
  <path d="m11.82,42.24c-.06,0-.13,0-.19-.02-.07,0-.13-.03-.19-.05-.06-.03-.12-.06-.17-.09-.06-.04-.11-.08-.15-.13-.05-.05-.09-.1-.13-.15-.03-.06-.06-.11-.09-.17-.02-.06-.04-.13-.06-.19,0-.07-.02-.13-.02-.2,0-.13.03-.26.08-.38.05-.12.12-.23.22-.32.04-.05.09-.09.15-.13.05-.03.11-.06.17-.09.06-.02.12-.04.19-.06.19-.04.39-.02.58.06.12.05.23.12.32.22.19.18.3.44.3.7,0,.07-.01.13-.02.2-.02.06-.04.13-.06.19-.03.06-.06.11-.09.17-.04.05-.08.1-.13.15-.09.09-.2.17-.32.22-.13.05-.25.07-.39.07Z"/>
  <path d="m26.82,42.24h-11.64c-.55,0-1-.45-1-1s.45-1,1-1h11.64c.55,0,1,.45,1,1s-.45,1-1,1Z"/>
  <path d="m28.82,21.24c-.55,0-1-.45-1-1v-5c0-4.96-4.04-9-9-9s-9,4.04-9,9v5c0,.55-.45,1-1,1s-1-.45-1-1v-5c0-6.07,4.93-11,11-11s11,4.93,11,11v5c0,.55-.45,1-1,1Z"/>
  <path d="m18.82,33.24c-2.21,0-4-1.79-4-4s1.79-4,4-4,4,1.79,4,4-1.79,4-4,4Zm0-6c-1.1,0-2,.9-2,2s.9,2,2,2,2-.9,2-2-.9-2-2-2Z"/>
  <path d="m18.82,37.24c-.55,0-1-.45-1-1v-4c0-.55.45-1,1-1s1,.45,1,1v4c0,.55-.45,1-1,1Z"/>
  <g>
    <g>
      <path d="m41.91,36.67c-.55,0-1-.45-1-1,0-2.99-2.39-5.43-5.33-5.43-1.61,0-3.12.73-4.14,2-.35.43-.98.5-1.41.16-.43-.35-.5-.97-.16-1.41,1.4-1.75,3.48-2.76,5.7-2.76,4.04,0,7.33,3.33,7.33,7.43,0,.55-.45,1-1,1Z"/>
      <path d="m41.9,37.33h0c-.27,0-.53-.11-.72-.31l-1.26-1.31c-.38-.4-.37-1.03.03-1.41s1.03-.37,1.41.03l.55.57.55-.56c.39-.39,1.02-.4,1.41-.01.39.39.4,1.02.01,1.41l-1.27,1.29c-.19.19-.45.3-.71.3Z"/>
    </g>
    <g>
      <path d="m35.57,43.76c-4.04,0-7.33-3.33-7.33-7.43,0-.55.45-1,1-1s1,.45,1,1c0,2.99,2.39,5.43,5.33,5.43,1.69,0,3.25-.79,4.26-2.17.33-.44.95-.54,1.4-.21s.54.95.21,1.4c-1.4,1.9-3.54,2.98-5.87,2.98Z"/>
      <path d="m30.5,37.98c-.26,0-.52-.1-.72-.31l-.55-.57-.55.56c-.39.39-1.02.4-1.41.01-.39-.39-.4-1.02-.01-1.41l1.27-1.29c.19-.19.45-.3.71-.3h0c.27,0,.53.11.72.31l1.26,1.31c.38.4.37,1.03-.03,1.41-.19.19-.44.28-.69.28Z"/>
    </g>
  </g>
</svg>