<?xml version="1.0" encoding="UTF-8"?>
<svg id="_레이어_1" data-name="레이어 1" xmlns="http://www.w3.org/2000/svg" viewBox="0 0 48 48">
  <path d="m38.55,43.21h-9.55c-.55,0-1-.45-1-1s.45-1,1-1h8.55v-18.11c0-.55.45-1,1-1s1,.45,1,1v19.11c0,.55-.45,1-1,1Z"/>
  <path d="m18.07,43.21h-9.5c-.55,0-1-.45-1-1v-19.11c0-.55.45-1,1-1s1,.45,1,1v18.11h8.5c.55,0,1,.45,1,1s-.45,1-1,1Z"/>
  <path d="m28.85,43.21c-.55,0-1-.45-1-1v-6.82c0-2.37-1.92-4.29-4.29-4.29s-4.29,1.92-4.29,4.29v6.82c0,.55-.45,1-1,1s-1-.45-1-1v-6.82c0-3.47,2.82-6.29,6.29-6.29s6.29,2.82,6.29,6.29v6.82c0,.55-.45,1-1,1Z"/>
  <path d="m8.57,24.05h-3.28c-1.06,0-1.96-.65-2.3-1.65-.34-1-.02-2.06.82-2.71L22.52,5.29c.87-.67,2.09-.67,2.96,0l5.67,4.37c.44.34.52.96.18,1.4-.34.44-.97.52-1.4.18l-5.67-4.37c-.15-.12-.37-.12-.52,0L5.02,21.28c-.21.16-.18.37-.14.48.04.11.14.29.4.29h3.28c.55,0,1,.45,1,1s-.45,1-1,1Z"/>
  <path d="m33.5,13.79c-.26,0-.52-.11-.71-.29-.18-.19-.29-.45-.29-.71s.11-.52.29-.71c.38-.37,1.05-.37,1.42,0,.18.19.29.44.29.71s-.11.52-.29.71c-.19.18-.44.29-.71.29Z"/>
  <path d="m42.71,24.05h-4.17c-.55,0-1-.45-1-1s.45-1,1-1h4.17c.27,0,.37-.18.4-.29.04-.11.07-.31-.14-.48l-6.09-4.7c-.44-.34-.52-.97-.18-1.4.34-.44.97-.52,1.4-.18l6.08,4.7c.84.64,1.16,1.7.82,2.7-.34,1-1.24,1.65-2.3,1.65Z"/>
</svg>