<?xml version="1.0" encoding="UTF-8"?>
<svg id="_레이어_1" data-name="레이어 1" xmlns="http://www.w3.org/2000/svg" viewBox="0 0 48 48">
  <path d="m40.81,25h-22.63c-.55,0-1-.45-1-1s.45-1,1-1h22.63c.55,0,1,.45,1,1s-.45,1-1,1Z"/>
  <path d="m6,25.83c-.55,0-1-.45-1-1V7c0-1.65,1.35-3,3-3h22c1.65,0,3,1.35,3,3v11c0,.55-.45,1-1,1s-1-.45-1-1V7c0-.55-.45-1-1-1H8c-.55,0-1,.45-1,1v17.83c0,.55-.45,1-1,1Z"/>
  <path d="m6.01,31c-.55,0-1-.45-1-1s.44-1,1-1h0c.55,0,1,.45,1,1s-.45,1-1,1Z"/>
  <path d="m30,44H8c-1.65,0-3-1.35-3-3v-7.17c0-.55.45-1,1-1s1,.45,1,1v7.17c0,.55.45,1,1,1h22c.55,0,1-.45,1-1v-11c0-.55.45-1,1-1s1,.45,1,1v11c0,1.65-1.35,3-3,3Z"/>
  <path d="m39,29c-.21,0-.42-.06-.6-.2-.44-.33-.53-.96-.2-1.4l2.55-3.4-2.55-3.4c-.33-.44-.24-1.07.2-1.4.44-.33,1.07-.24,1.4.2l3,4c.27.36.27.84,0,1.2l-3,4c-.2.26-.5.4-.8.4Z"/>
</svg>