<?xml version="1.0" encoding="UTF-8"?>
<svg id="_레이어_1" data-name="레이어 1" xmlns="http://www.w3.org/2000/svg" viewBox="0 0 48 48">
  <defs>
    <style>
      .cls-1 {
        stroke-width: 0px;
      }
    </style>
  </defs>
  <g>
    <path class="cls-1" d="m28.86,37.15c-.27,0-.52-.11-.71-.29-.19-.19-.29-.44-.29-.71s.1-.52.29-.71c.37-.37,1.04-.37,1.41,0,.19.19.3.45.3.71s-.11.52-.3.71c-.04.04-.09.09-.15.12-.05.04-.11.07-.17.09-.06.03-.12.05-.19.06-.06.02-.13.02-.19.02Z"/>
    <path class="cls-1" d="m37.37,37.15h-3.65c-.55,0-1-.45-1-1s.45-1,1-1h3.65c1.46,0,2.64-1.18,2.64-2.64V15.49c0-1.46-1.18-2.64-2.64-2.64H10.63c-1.46,0-2.64,1.18-2.64,2.64v17.02c0,1.46,1.18,2.64,2.64,2.64h13.37c.55,0,1,.45,1,1s-.45,1-1,1h-13.37c-2.56,0-4.64-2.08-4.64-4.64V15.49c0-2.56,2.08-4.64,4.64-4.64h26.74c2.56,0,4.64,2.08,4.64,4.64v17.02c0,2.56-2.08,4.64-4.64,4.64Z"/>
  </g>
  <path class="cls-1" d="m40.38,18H7.62c-.55,0-1-.45-1-1s.45-1,1-1h32.76c.55,0,1,.45,1,1s-.45,1-1,1Z"/>
  <g>
    <path class="cls-1" d="m17.92,31.5c-.26,0-.51-.1-.71-.29l-4.42-4.42c-.19-.19-.29-.44-.29-.71s.11-.52.29-.71l4.49-4.49c.39-.39,1.02-.39,1.41,0s.39,1.02,0,1.41l-3.78,3.78,3.71,3.71c.39.39.39,1.02,0,1.41-.2.2-.45.29-.71.29Z"/>
    <path class="cls-1" d="m30.01,31.5c-.26,0-.51-.1-.71-.29-.39-.39-.39-1.02,0-1.41l3.78-3.78-3.71-3.71c-.39-.39-.39-1.02,0-1.41s1.02-.39,1.41,0l4.42,4.42c.19.19.29.44.29.71s-.11.52-.29.71l-4.49,4.49c-.2.2-.45.29-.71.29Z"/>
  </g>
  <path class="cls-1" d="m22.08,29.9c-.23,0-.46-.08-.64-.24-.42-.36-.48-.99-.12-1.41l4.63-5.49c.36-.42.99-.48,1.41-.12.42.36.48.99.12,1.41l-4.63,5.49c-.2.23-.48.35-.76.35Z"/>
</svg>